<svg width="70" height="70" viewBox="0 0 70 70" fill="none" xmlns="http://www.w3.org/2000/svg">
    <path d="M27.5605 33.2014L13.1249 14.7661L5.8877 33.2014H27.5605Z" fill="#FFF856" />
    <path d="M34.8796 10.7606L22.1182 34.8503H47.639L34.8796 10.7606Z" fill="#FFF856" />
    <path d="M42.4395 33.2014L56.875 14.7661L64.1122 33.2014H42.4395Z" fill="#FFF856" />
    <path
        d="M55.7452 29.5361L46.4468 6.85028L35.0135 29.5381L34.9999 29.5439L34.9863 29.5361L23.5529 6.84833L14.2546 29.5361C8.16071 21.0642 2.48877 15.6372 2.48877 15.6372C2.48877 15.6372 5.83321 40.3472 5.83321 64.1667H64.1665C64.1665 40.3472 67.511 15.6372 67.511 15.6372C67.511 15.6372 61.839 21.0642 55.7452 29.5361Z"
        fill="#FFF857" />
    <path
        d="M34.9165 49.9489C38.877 49.9489 42.0876 46.7383 42.0876 42.7778C42.0876 38.8173 38.877 35.6067 34.9165 35.6067C30.956 35.6067 27.7454 38.8173 27.7454 42.7778C27.7454 46.7383 30.956 49.9489 34.9165 49.9489Z"
        fill="#5C913B" />
    <path
        d="M51.4559 47.4678C54.0461 47.4678 56.1459 45.368 56.1459 42.7778C56.1459 40.1876 54.0461 38.0878 51.4559 38.0878C48.8657 38.0878 46.7659 40.1876 46.7659 42.7778C46.7659 45.368 48.8657 47.4678 51.4559 47.4678Z"
        fill="#981CEB" />
    <path
        d="M63.879 46.6394C66.0117 46.6394 67.7407 44.9105 67.7407 42.7778C67.7407 40.645 66.0117 38.9161 63.879 38.9161C61.7463 38.9161 60.0173 40.645 60.0173 42.7778C60.0173 44.9105 61.7463 46.6394 63.879 46.6394Z"
        fill="#DD2E44" />
    <path
        d="M18.3751 47.4678C20.9653 47.4678 23.0651 45.368 23.0651 42.7778C23.0651 40.1876 20.9653 38.0878 18.3751 38.0878C15.7848 38.0878 13.6851 40.1876 13.6851 42.7778C13.6851 45.368 15.7848 47.4678 18.3751 47.4678Z"
        fill="#981CEB" />
    <path
        d="M5.952 46.6394C8.08474 46.6394 9.81366 44.9105 9.81366 42.7778C9.81366 40.645 8.08474 38.9161 5.952 38.9161C3.81926 38.9161 2.09033 40.645 2.09033 42.7778C2.09033 44.9105 3.81926 46.6394 5.952 46.6394Z"
        fill="#DD2E44" />
    <path
        d="M64.1667 66.1111H5.83336C5.31766 66.1111 4.82308 65.9063 4.45843 65.5416C4.09378 65.1769 3.88892 64.6824 3.88892 64.1667C3.88892 63.651 4.09378 63.1564 4.45843 62.7917C4.82308 62.4271 5.31766 62.2222 5.83336 62.2222H64.1667C64.6824 62.2222 65.177 62.4271 65.5416 62.7917C65.9063 63.1564 66.1111 63.651 66.1111 64.1667C66.1111 64.6824 65.9063 65.1769 65.5416 65.5416C65.177 65.9063 64.6824 66.1111 64.1667 66.1111ZM64.1667 59.3328H5.83336C5.31766 59.3328 4.82308 59.1279 4.45843 58.7633C4.09378 58.3986 3.88892 57.904 3.88892 57.3883C3.88892 56.8726 4.09378 56.3781 4.45843 56.0134C4.82308 55.6487 5.31766 55.4439 5.83336 55.4439H64.1667C64.6824 55.4439 65.177 55.6487 65.5416 56.0134C65.9063 56.3781 66.1111 56.8726 66.1111 57.3883C66.1111 57.904 65.9063 58.3986 65.5416 58.7633C65.177 59.1279 64.6824 59.3328 64.1667 59.3328Z"
        fill="#FFD600" />
    <path
        d="M2.81371 18.3731C4.32467 18.3731 5.54955 17.1482 5.54955 15.6372C5.54955 14.1263 4.32467 12.9014 2.81371 12.9014C1.30276 12.9014 0.0778809 14.1263 0.0778809 15.6372C0.0778809 17.1482 1.30276 18.3731 2.81371 18.3731Z"
        fill="#FFF857" />
    <path
        d="M13.1249 17.0839C14.405 17.0839 15.4427 16.0462 15.4427 14.7661C15.4427 13.486 14.405 12.4483 13.1249 12.4483C11.8448 12.4483 10.8071 13.486 10.8071 14.7661C10.8071 16.0462 11.8448 17.0839 13.1249 17.0839Z"
        fill="#FFF856" />
    <path
        d="M23.5531 10.3192C25.4689 10.3192 27.022 8.76609 27.022 6.85028C27.022 4.93446 25.4689 3.38139 23.5531 3.38139C21.6373 3.38139 20.0842 4.93446 20.0842 6.85028C20.0842 8.76609 21.6373 10.3192 23.5531 10.3192Z"
        fill="#FFF857" />
    <path
        d="M67.1863 18.3731C68.6972 18.3731 69.9221 17.1482 69.9221 15.6372C69.9221 14.1263 68.6972 12.9014 67.1863 12.9014C65.6753 12.9014 64.4504 14.1263 64.4504 15.6372C64.4504 17.1482 65.6753 18.3731 67.1863 18.3731Z"
        fill="#FFF857" />
    <path
        d="M56.8749 17.0839C58.155 17.0839 59.1927 16.0462 59.1927 14.7661C59.1927 13.486 58.155 12.4483 56.8749 12.4483C55.5948 12.4483 54.5571 13.486 54.5571 14.7661C54.5571 16.0462 55.5948 17.0839 56.8749 17.0839Z"
        fill="#FFF856" />
    <path
        d="M46.4469 10.3192C48.3627 10.3192 49.9158 8.76609 49.9158 6.85028C49.9158 4.93446 48.3627 3.38139 46.4469 3.38139C44.5311 3.38139 42.978 4.93446 42.978 6.85028C42.978 8.76609 44.5311 10.3192 46.4469 10.3192Z"
        fill="#FFF857" />
    <path
        d="M34.8795 14.2294C36.7953 14.2294 38.3484 12.6764 38.3484 10.7606C38.3484 8.84474 36.7953 7.29167 34.8795 7.29167C32.9637 7.29167 31.4106 8.84474 31.4106 10.7606C31.4106 12.6764 32.9637 14.2294 34.8795 14.2294Z"
        fill="#FFF856" />
</svg>
    